<svg width="250" height="250" viewBox="0 0 250 250" fill="none" xmlns="http://www.w3.org/2000/svg">
<g clip-path="url(#clip0_3_6)">
<path d="M100 108.267C100 101.636 102.634 95.2774 107.322 90.589C112.011 85.9006 118.37 83.2667 125 83.2667C131.63 83.2667 137.989 85.9006 142.678 90.589C147.366 95.2774 150 101.636 150 108.267C150 114.897 147.366 121.256 142.678 125.944C137.989 130.633 131.63 133.267 125 133.267C118.37 133.267 112.011 130.633 107.322 125.944C102.634 121.256 100 114.897 100 108.267Z" fill="#E60725"/>
<path fill-rule="evenodd" clip-rule="evenodd" d="M16.6666 108.267C16.6843 79.5464 28.1058 52.0086 48.4203 31.7065C68.7348 11.4045 96.2797 -5.43815e-06 125 0C184.817 0 233.333 48.4833 233.333 108.267C233.333 152.833 211.033 188.15 187.133 212.017C176.553 222.61 164.715 231.868 151.883 239.583C146.517 242.75 141.5 245.25 137.133 246.95C133.017 248.583 128.7 249.85 125 249.85C121.3 249.85 116.983 248.583 112.867 246.95C107.77 244.873 102.839 242.41 98.1166 239.583C85.2851 231.868 73.4469 222.61 62.8666 212.017C38.9666 188.15 16.6666 152.833 16.6666 108.267ZM125 66.6167C113.949 66.6167 103.351 71.0065 95.5372 78.8206C87.7232 86.6346 83.3333 97.2327 83.3333 108.283C83.3333 119.334 87.7232 129.932 95.5372 137.746C103.351 145.56 113.949 149.95 125 149.95C136.051 149.95 146.649 145.56 154.463 137.746C162.277 129.932 166.667 119.334 166.667 108.283C166.667 97.2327 162.277 86.6346 154.463 78.8206C146.649 71.0065 136.051 66.6167 125 66.6167Z" fill="#E60725"/>
</g>
<defs>
<clipPath id="clip0_3_6">
<rect width="250" height="250" fill="white"/>
</clipPath>
</defs>
</svg>
